<svg xmlns="http://www.w3.org/2000/svg" data-name="Layer 1" viewBox="0 0 128 128"><path d="M64 0a64 64 0 1 0 64 64A64.072 64.072 0 0 0 64 0Zm36 101a10.011 10.011 0 0 1-10 10H38a10.011 10.011 0 0 1-10-10V85a36.028 36.028 0 0 1 19.195-31.823 22 22 0 1 1 33.61 0A36.028 36.028 0 0 1 100 85Z"/><path d="M77.787 56.127a22.055 22.055 0 0 1-4.081 2.61A28.046 28.046 0 0 1 92 85v16a2.002 2.002 0 0 1-2 2H38a2.002 2.002 0 0 1-2-2V85a28.046 28.046 0 0 1 18.294-26.263 22.055 22.055 0 0 1-4.08-2.61A32.04 32.04 0 0 0 32 85v16a6.007 6.007 0 0 0 6 6h52a6.007 6.007 0 0 0 6-6V85a32.04 32.04 0 0 0-18.213-28.873Z"/><path d="M64 57a18 18 0 1 0-18-18 18.02 18.02 0 0 0 18 18Zm0-32a14 14 0 1 1-14 14 14.016 14.016 0 0 1 14-14Z"/></svg>